<svg xmlns="http://www.w3.org/2000/svg" viewBox="0 0 30.21 32.35"><defs><style>.cls-1{fill:#231f20;}.cls-2{fill:#fff;}</style></defs><title>bishop-white</title><g id="Calque_2" data-name="Calque 2"><g id="chess_pieces" data-name="chess pieces"><path class="cls-1" d="M30.21,31.25v1.1h-9c-1.81,0-4.89-.76-6.09-3.36-1.2,2.59-4.28,3.35-6.09,3.36H0v-1.1c0-5.34,4-7,6.11-7.07h2a2.38,2.38,0,0,1-.69-1.64v-2c-3.12-3-4.09-6.38-2.59-9.21,1.41-2.65,4.23-5.19,6.63-7a2.73,2.73,0,0,1-.24-1.11C11.18,1.45,12.94,0,15.1,0S19,1.45,19,3.24a2.71,2.71,0,0,1-.24,1.11c2.4,1.83,5.22,4.36,6.63,7,1.5,2.83.53,6.25-2.59,9.21v2a2.32,2.32,0,0,1-.65,1.6l0,0H24C26.21,24.29,30.21,25.91,30.21,31.25Z"/><path class="cls-2" d="M8.33,20H21.87c2.08-1.89,4.19-5,2.57-8.08s-5-5.74-7.17-7.29a1.85,1.85,0,0,0,.65-1.36c0-1.18-1.26-2.14-2.82-2.14s-2.82,1-2.82,2.14a1.85,1.85,0,0,0,.65,1.36C10.81,6.14,7.31,9,5.77,11.89S6.26,18.07,8.33,20ZM12.1,11l2.35.35L14.1,8.91h2l-.35,2.47L18.1,11v2l-2.35-.35.35,4.13h-2l.35-4.13L12.1,13Z"/><path class="cls-2" d="M24,25.28H18.1V23.89h1.8c1.87,0,1.81-1.33,1.81-1.33V20.46H8.49v2.09s0,1.33,1.81,1.33h1.8v1.39H6.17s-5.07.27-5.07,6H9s5.5,0,5.5-4.7V23.89H15.7v2.67c0,4.72,5.49,4.7,5.49,4.7h7.91C29.11,25.54,24,25.28,24,25.28Z"/></g></g></svg>