<svg xmlns="http://www.w3.org/2000/svg" viewBox="0 0 33.52 34.09"><defs><style>.cls-1{fill:#fff;}.cls-2{fill:#231f20;}</style></defs><title>king-black</title><g id="Calque_2" data-name="Calque 2"><g id="chess_pieces" data-name="chess pieces"><path class="cls-1" d="M25.53,7.48a9.46,9.46,0,0,0-3.3.15l-.14,0-.56.23a7.21,7.21,0,0,0-2.08-1.28l1.66.25V2.13l-2.36.35L19.11,0h-4.7l.35,2.48L12.4,2.13V6.86l1.66-.25A7.23,7.23,0,0,0,12,7.89l-.56-.22-.14,0A9.45,9.45,0,0,0,8,7.48c-3.19.43-8.17,3.3-8,9.16A10.57,10.57,0,0,0,4.78,25v6.57a2.88,2.88,0,0,0,3,2.47H25.68a2.88,2.88,0,0,0,3-2.47V25a10.57,10.57,0,0,0,4.78-8.41C33.7,10.78,28.72,7.91,25.53,7.48Z"/><path class="cls-2" d="M5.88,31.5a1.8,1.8,0,0,0,2,1.5H25.68a1.8,1.8,0,0,0,2-1.5V24.85H5.88Zm20.61-4.81v4.37l-3.07-2.23Zm-9.68,0h0l3,2.09-3,2.18-3.07-2.15Zm-9.72,0,3.07,2.14L7.09,31.06Zm9.38-2.34H5.74A9.57,9.57,0,0,1,1.1,16.6c-.17-5.32,4.44-7.69,7-8A8.31,8.31,0,0,1,11,8.7a9.82,9.82,0,0,1,5,4,5.39,5.39,0,0,1,.48,2.09v9.52ZM15.88,7.25l.17-2.05-2.55.38V3.41l2.55.38L15.67,1.1h2.17l-.38,2.69L20,3.41V5.58L17.47,5.2l.17,2a6.14,6.14,0,0,1,3.3,1.58A9.77,9.77,0,0,0,16.76,13a9.8,9.8,0,0,0-4.18-4.2A6.14,6.14,0,0,1,15.88,7.25ZM32.42,16.6a9.58,9.58,0,0,1-4.64,7.75H17v-9.5a5.55,5.55,0,0,1,.48-2.12,9.82,9.82,0,0,1,5-4,8.32,8.32,0,0,1,2.91-.14C28,8.92,32.59,11.29,32.42,16.6Z"/></g></g></svg>