<svg xmlns="http://www.w3.org/2000/svg" viewBox="0 0 31.92 33.2"><defs><style>.cls-1{fill:#fff;}.cls-2{fill:#231f20;}</style></defs><title>knight-black</title><g id="Calque_2" data-name="Calque 2"><g id="chess_pieces" data-name="chess pieces"><path class="cls-1" d="M0,33.19H28.87L28.77,32c-.35-4.47-4.42-8.47-7.49-10.27a6.1,6.1,0,0,1,1.21.67c.41.29.78.61,1.1.89a3.58,3.58,0,0,0,2.23,1.21,1.75,1.75,0,0,0,.4,0,3.45,3.45,0,0,0,1.66-1.15,1.83,1.83,0,0,0,1.48-.64,1.71,1.71,0,0,0,.19-1.94,2.18,2.18,0,0,0,.34,0,1.65,1.65,0,0,0,1.54-2.4,5.71,5.71,0,0,0,.5-2.06c0-1.44-1.1-2.53-2.74-3.71-1.39-1-4.82-3.66-5.87-4.68a16,16,0,0,0-4.18-3.07,11.55,11.55,0,0,0-2.36-.65A5.85,5.85,0,0,0,15.47.45L15,0,14.4.17a7.6,7.6,0,0,0-4.33,4H9.54l-.17.3c-1.6,1-8,5.42-8,15.55,0,8.6-.94,11.74-1,11.77Z"/><path class="cls-2" d="M9.6,32.1H27.68C27.3,27.3,21.93,22.89,19.22,22S14.59,21.1,13,19.3,11.34,16,11.63,13.6a6.81,6.81,0,0,0,1.79,5c1.29,1.12,4.46,1.54,5.54,1.5a7.47,7.47,0,0,1,4.17,1.37c1.33,1,2.12,2,2.83,1.87s1.46-1.29,1.46-1.29.71.33,1.08-.12a.65.65,0,0,0,0-.87s-.54-.37-.87-.67-.71-.67-.37-1.25a.94.94,0,0,1,1.25-.42,12.79,12.79,0,0,1,1.23.87.76.76,0,0,0,.66-.16c.41-.47-.19-1-.19-1a5.71,5.71,0,0,0,.66-2.16c0-.94-.84-1.78-2.28-2.81s-4.91-3.72-6-4.78A14.74,14.74,0,0,0,18.7,5.86a12.74,12.74,0,0,0-3-.72s.19-2.75-1-3.91c-1.79.5-5.36,3.71-3.42,6.9l.19.31-.41.37c-.72.63-2.61,2.59-3.14,8.16a19.45,19.45,0,0,0,.69,6.5A32.44,32.44,0,0,1,9.6,32.1Zm17-16.52c0-.5,1-.78,1.47-.37a1.34,1.34,0,0,1,.44,1c-.28-.12-.44,0-.94.13A.75.75,0,0,1,26.63,15.58ZM17,11a.94.94,0,1,1,.94.94A.94.94,0,0,1,17,11Zm-1.54-.7A2.94,2.94,0,0,1,17,8.53a2.4,2.4,0,0,1,2.57.65l2.73,2.65a30.81,30.81,0,0,0-3.39-2.38,2.42,2.42,0,0,0-1.54-.32A3,3,0,0,0,15.47,10.34Z"/><path class="cls-2" d="M2.47,20c0-9.83,6.25-14,7.71-14.75a4.34,4.34,0,0,0,.6,3c-.89.81-3.05,3-3.59,8.59a20.42,20.42,0,0,0,.71,6.78,31.66,31.66,0,0,1,1,8.43H1.47S2.43,29,2.47,20Z"/></g></g></svg>