<svg xmlns="http://www.w3.org/2000/svg" viewBox="0 0 23.99 28.17"><defs><style>.cls-1{fill:#fff;}.cls-2{fill:#231f20;}</style></defs><title>pawn-black</title><g id="Calque_2" data-name="Calque 2"><g id="chess_pieces" data-name="chess pieces"><path class="cls-1" d="M19.82,20.89l-.19-.08a8.59,8.59,0,0,0-3.52-4.41V13.84h.84a2.54,2.54,0,0,0-.09-5.07h-.63a5.42,5.42,0,1,0-8.47,0H7.13a2.54,2.54,0,0,0,0,5.07h.8V16.4a8.58,8.58,0,0,0-3.52,4.41l-.19.08c-2,.81-4.17,2-4.17,6.18v1.1H24v-1.1C24,22.92,21.84,21.7,19.82,20.89Z"/><path class="cls-2" d="M9,13.25v3.82A7,7,0,0,0,5.3,21.41H18.69A7,7,0,0,0,15,17.07V13.25Z"/><path class="cls-2" d="M18.3,11.31a1.44,1.44,0,0,0-1.44-1.44H7.13a1.44,1.44,0,0,0,0,2.87h9.83A1.44,1.44,0,0,0,18.3,11.31Z"/><path class="cls-2" d="M10.27,9.37h3.46a4.32,4.32,0,1,0-3.46,0Z"/><path class="cls-2" d="M19.41,21.91H4.58c-1.87.76-3.48,1.71-3.48,5.16H22.89C22.89,23.62,21.28,22.66,19.41,21.91Z"/></g></g></svg>