<svg xmlns="http://www.w3.org/2000/svg" viewBox="0 0 35.65 31.9"><defs><style>.cls-1{fill:#fff;}.cls-2{fill:#231f20;}</style></defs><title>queen-black</title><g id="Calque_2" data-name="Calque 2"><g id="chess_pieces" data-name="chess pieces"><path class="cls-1" d="M32.19,7.6a3.47,3.47,0,0,0-3.46,3.46c0,.05,0,.11,0,.16l-2.09,1.28L25.18,6.25a3.46,3.46,0,1,0-4.79-.71L17.8,9.89,15.19,5.51a3.46,3.46,0,1,0-4.82.91L9,12.49l-2-1.24c0-.06,0-.13,0-.19a3.46,3.46,0,1,0-4.19,3.38l3.08,8v7A2.89,2.89,0,0,0,8.87,31.9H26.72a2.88,2.88,0,0,0,3.05-2.47v-7l3.08-8a3.46,3.46,0,0,0-.66-6.86Z"/><path class="cls-2" d="M32.19,8.7a2.36,2.36,0,0,0-2.36,2.36,2.33,2.33,0,0,0,.12.71l-4,2.46-2-8.54a2.36,2.36,0,1,0-2.15-.31L17.8,12l-4-6.66a2.36,2.36,0,1,0-2.19.44l-2,8.4-4-2.43a2.35,2.35,0,1,0-2.23,1.62h.06l3.37,8.75H28.7l3.37-8.75h.11a2.36,2.36,0,0,0,0-4.72Z"/><path class="cls-2" d="M6.91,22.66v6.65a1.8,1.8,0,0,0,2,1.5H26.72a1.8,1.8,0,0,0,2-1.5V22.66Zm1.21,6.21V24.5l3.07,2.14Zm9.74-.05-3.06-2.15,3.05-2.13h0l3,2.09Zm9.67.05-3.07-2.23,3.07-2.14Z"/></g></g></svg>