<svg xmlns="http://www.w3.org/2000/svg" viewBox="0 0 29.62 30.59"><defs><style>.cls-1{fill:#fff;}.cls-2{fill:#231f20;}</style></defs><title>rook-black</title><g id="Calque_2" data-name="Calque 2"><g id="chess_pieces" data-name="chess pieces"><path class="cls-1" d="M28.92,29.89l-.27.7H1l-.27-.7c-2.35-6.06,1.82-8.33,3.19-9.08l.16-.09a17.21,17.21,0,0,1,3.23-6.1V11.47a4.41,4.41,0,0,1-2.63-1.34A4.75,4.75,0,0,1,3.51,6.7V0h6.61V3.14h.95V0h7.5V3.14h.95V0h6.61V6.8A4.71,4.71,0,0,1,25,10.13a4.4,4.4,0,0,1-2.63,1.34v3.15a17.2,17.2,0,0,1,3.23,6.1l.16.09C27.1,21.55,31.27,23.82,28.92,29.89Z"/><path class="cls-2" d="M24.59,21.27A16,16,0,0,0,21.24,15V11H8.39V15A16,16,0,0,0,5,21.27Z"/><path class="cls-2" d="M25.2,21.77H4.42C2,23.11,0,25.11,1.73,29.49H27.89C29.59,25.11,27.66,23.11,25.2,21.77Z"/><path class="cls-2" d="M8.39,10.46H21.24C25.34,10.46,25,6.8,25,6.8V1.1H20.61V4.24H17.46V1.1h-5.3V4.24H9V1.1H4.61V6.8S4.29,10.46,8.39,10.46Z"/></g></g></svg>